<?xml version="1.0" standalone="no"?>
<!DOCTYPE svg PUBLIC "-//W3C//DTD SVG 20010904//EN"
 "http://www.w3.org/TR/2001/REC-SVG-20010904/DTD/svg10.dtd">
<svg version="1.0" xmlns="http://www.w3.org/2000/svg"
 width="2000.000000pt" height="4400.000000pt" viewBox="0 0 2000.000000 4400.000000"
 preserveAspectRatio="xMidYMid meet">
<metadata>
Created by potrace 1.13, written by Peter Selinger 2001-2015
</metadata>
<g transform="translate(0.000000,4400.000000) scale(0.100000,-0.100000)"
fill="#000000" stroke="none">
<path d="M0 22000 l0 -22000 10000 0 10000 0 0 22000 0 22000 -10000 0 -10000
0 0 -22000z m10139 16295 l135 -415 444 -2 444 -3 -356 -258 c-196 -142 -356
-263 -356 -269 0 -8 158 -500 255 -797 11 -31 11 -40 2 -34 -6 5 -168 123
-359 262 l-348 252 -347 -252 c-192 -139 -354 -257 -360 -262 -9 -6 -9 3 2 34
97 296 255 789 255 797 0 6 -160 127 -356 269 l-356 258 444 3 444 2 135 415
c74 228 136 415 139 415 3 0 65 -187 139 -415z m-3674 -995 l132 -405 441 -5
441 -5 -345 -250 c-190 -137 -350 -255 -355 -261 -6 -8 37 -154 125 -425 74
-227 133 -415 132 -416 -2 -2 -161 112 -355 252 -193 140 -355 255 -359 255
-4 0 -164 -114 -357 -254 -192 -140 -351 -253 -353 -251 -3 3 255 810 264 826
2 4 -156 123 -352 265 l-356 259 440 3 441 2 10 33 c94 302 265 808 269 797 3
-8 65 -197 137 -420z m7355 3 l134 -413 438 -2 438 -3 -355 -258 c-196 -142
-354 -261 -351 -265 9 -16 268 -824 264 -827 -1 -1 -160 111 -352 251 -192
140 -354 254 -360 254 -6 0 -168 -115 -361 -255 -192 -140 -350 -253 -352
-252 -1 2 59 191 134 420 74 230 134 419 132 421 -2 1 -163 118 -358 259
l-353 257 442 2 443 3 135 418 c75 229 139 414 142 410 3 -5 66 -194 140 -420z
m-10161 -2325 c11 -35 72 -224 136 -420 l116 -358 438 -2 438 -3 -344 -250
c-189 -137 -348 -255 -353 -260 -5 -6 45 -177 126 -424 74 -228 133 -415 132
-417 -2 -1 -161 112 -353 252 -193 140 -354 254 -360 254 -6 0 -168 -114 -360
-254 -193 -140 -351 -251 -352 -248 -1 4 58 192 131 417 77 234 131 414 126
420 -5 6 -164 123 -353 260 l-345 250 438 3 439 2 95 293 c52 160 113 349 136
420 22 70 43 127 45 127 2 0 12 -28 24 -62z m12846 -355 l132 -408 443 -5
c408 -5 441 -6 424 -21 -11 -9 -170 -126 -354 -259 -184 -134 -336 -244 -337
-245 -2 -1 58 -190 133 -419 74 -230 134 -419 132 -421 -2 -1 -138 96 -303
217 -165 120 -325 236 -355 257 l-56 39 -354 -258 c-195 -141 -356 -256 -358
-255 -2 2 58 191 133 420 74 230 134 419 133 420 -2 1 -154 112 -338 245 -184
133 -343 250 -354 259 -17 15 15 16 425 21 l442 5 33 100 c18 55 79 241 134
413 56 172 104 311 107 308 3 -3 65 -188 138 -413z m-13719 -3683 l132 -405
442 -5 c408 -5 441 -6 424 -21 -13 -11 -579 -423 -691 -503 -1 -1 58 -188 132
-416 74 -228 133 -416 130 -418 -2 -2 -162 111 -356 252 -312 227 -355 255
-371 244 -10 -7 -171 -124 -358 -260 -187 -136 -340 -245 -340 -242 0 4 61
193 136 421 74 229 132 419 127 423 -4 4 -141 103 -303 220 -162 117 -320 232
-350 254 l-55 41 445 5 444 5 135 418 c75 230 138 412 140 405 3 -7 65 -195
137 -418z m14709 0 l132 -405 443 -5 444 -5 -339 -247 c-187 -135 -348 -253
-358 -260 -17 -13 -10 -38 117 -428 74 -228 133 -416 131 -418 -1 -2 -153 105
-336 238 -183 133 -343 249 -355 257 -21 14 -38 3 -374 -242 -194 -141 -354
-254 -356 -252 -2 2 57 190 131 418 74 228 131 417 127 420 -4 4 -164 121
-357 260 l-350 254 442 3 442 2 121 373 c67 204 128 395 137 422 10 29 18 44
22 35 2 -8 64 -197 136 -420z m-13720 -3680 l132 -405 444 -5 444 -5 -350
-254 c-192 -139 -353 -256 -357 -260 -5 -4 53 -194 127 -423 74 -229 135 -419
135 -421 0 -3 -158 110 -352 250 -194 141 -357 256 -364 256 -6 0 -167 -113
-358 -252 -191 -139 -349 -251 -351 -249 -2 2 56 190 130 418 74 228 131 417
127 421 -4 3 -164 120 -357 260 l-350 254 443 5 444 5 136 418 c75 231 138
413 141 405 3 -7 64 -195 136 -418z m12604 398 c5 -18 66 -207 136 -420 l126
-388 441 -2 441 -3 -344 -249 c-189 -137 -349 -254 -356 -260 -9 -9 19 -106
122 -425 74 -228 133 -416 131 -418 -2 -2 -162 111 -355 251 -193 141 -353
256 -356 256 -2 0 -163 -115 -356 -255 -193 -141 -353 -254 -355 -252 -2 1 55
183 126 402 72 220 132 407 135 416 4 12 -84 81 -351 275 l-357 259 442 5 443
5 136 418 c75 229 137 417 138 417 1 0 7 -15 13 -32z m-9916 -3083 l133 -410
442 -5 443 -5 -355 -258 c-196 -142 -356 -262 -356 -265 0 -4 61 -191 135
-417 73 -225 132 -411 130 -413 -2 -2 -158 109 -347 245 -188 137 -349 253
-356 257 -7 4 -142 -87 -364 -248 -193 -141 -353 -254 -355 -252 -3 2 54 184
126 404 71 220 131 407 133 416 2 10 -114 100 -355 276 l-359 260 445 0 445 0
26 78 c13 42 75 232 137 422 62 190 114 341 116 335 1 -5 63 -194 136 -420z
m7342 38 c70 -214 131 -403 136 -420 l10 -33 441 -2 440 -3 -356 -259 c-196
-142 -354 -261 -352 -265 9 -16 267 -823 264 -826 -2 -2 -161 111 -353 251
-193 140 -353 254 -357 254 -4 0 -166 -115 -359 -255 -194 -140 -353 -254
-355 -252 -2 1 58 188 132 416 73 227 132 417 129 421 -3 4 -162 122 -354 261
l-350 254 442 5 441 5 135 418 c74 229 136 417 138 417 1 0 59 -174 128 -387z
m-3666 -1018 l135 -415 444 -2 444 -3 -356 -259 c-196 -142 -356 -263 -356
-269 0 -8 127 -405 245 -765 l24 -73 -32 23 c-18 12 -179 129 -359 260 l-328
238 -327 -238 c-181 -131 -342 -248 -360 -260 l-32 -23 19 58 c135 414 250
772 250 780 0 6 -160 127 -356 269 l-357 259 445 3 444 2 135 415 c74 228 136
415 139 415 3 0 65 -187 139 -415z m-3074 -7204 c788 -64 1534 -221 2040 -429
l70 -29 -3 -59 c-1 -32 -25 -429 -52 -881 -28 -452 -50 -838 -50 -858 0 -19
-4 -35 -10 -35 -5 0 -67 32 -137 72 -528 296 -1173 497 -1833 572 -950 108
-1717 -43 -2357 -465 -804 -530 -1341 -1482 -1518 -2686 -42 -287 -56 -466
-62 -808 -6 -338 4 -593 33 -875 188 -1828 1067 -2995 2470 -3279 260 -52 399
-65 709 -66 351 0 554 23 851 95 115 27 288 82 327 102 16 8 17 90 17 1508 l0
1500 -847 2 -848 3 -3 783 -2 782 1810 0 1810 0 0 -2921 0 -2920 -107 -51
c-605 -284 -1399 -455 -2363 -508 -238 -13 -810 -13 -1015 0 -1163 74 -2177
423 -2970 1020 -755 569 -1312 1341 -1660 2299 -350 964 -473 2152 -344 3311
124 1114 492 2099 1073 2875 232 310 558 643 859 878 264 206 512 360 832 517
255 125 382 177 665 271 485 161 1004 254 1625 293 116 7 861 -3 990 -13z
m8625 -159 c443 -47 798 -124 1107 -241 661 -250 1121 -655 1404 -1236 192
-395 282 -799 296 -1330 13 -541 -69 -959 -271 -1381 -337 -699 -981 -1187
-1766 -1338 -102 -19 -115 -24 -118 -44 -2 -16 3 -23 20 -26 13 -3 48 -10 78
-16 341 -71 597 -256 813 -585 83 -128 203 -374 270 -555 32 -85 383 -1107
781 -2270 l723 -2115 -1085 -3 c-597 -1 -1087 0 -1089 2 -2 2 -251 818 -553
1812 -303 995 -566 1856 -586 1914 -50 146 -171 388 -248 495 -212 293 -487
463 -866 536 -102 20 -156 23 -487 26 l-373 5 0 -2396 0 -2396 -1025 0 -1025
0 0 5580 0 5581 1943 -4 c1420 -2 1973 -7 2057 -15z"/>
<path d="M13740 13034 l0 -1646 553 5 c610 5 648 8 906 73 626 159 1023 568
1146 1178 49 245 56 532 19 819 -91 705 -471 1076 -1209 1181 -206 29 -368 36
-891 36 l-524 0 0 -1646z"/>
</g>
</svg>
